<?xml version="1.0" encoding="UTF-8"?>
<svg width="861px" height="772px" viewBox="0 0 861 772" version="1.1" xmlns="http://www.w3.org/2000/svg" xmlns:xlink="http://www.w3.org/1999/xlink">
    <!-- Generator: Sketch 53.2 (72643) - https://sketchapp.com -->
    <title>undraw_super_woman_dv0y</title>
    <desc>Created with Sketch.</desc>
    <g id="Page-1" stroke="none" stroke-width="1" fill="none" fill-rule="evenodd">
        <g id="undraw_super_woman_dv0y">
            <ellipse id="Oval" fill="#F2F2F2" fill-rule="nonzero" cx="449.78288" cy="728.92428" rx="283" ry="43"></ellipse>
            <path d="M627.58925,576.70914 C635.896268,579.729061 645.204657,577.172582 650.803947,570.333398 C656.403236,563.494215 657.071907,553.864336 652.471583,546.31692 C647.871258,538.769505 639.005524,534.951067 630.36085,536.79391 L630.88178,547.50611 L625.81364,538.32565 C620.83954,540.662834 616.996834,544.879226 615.12997,550.04826 C614.466973,551.858908 614.063923,553.754377 613.93284,555.67813 C613.275487,564.952102 618.849959,573.536845 627.58925,576.70914 L627.58925,576.70914 Z" id="Path" fill="#57B894" fill-rule="nonzero"></path>
            <path d="M652.66659,700.95257 C650.87754,691.8423 658.6299,683.76577 666.28746,678.51605 C673.94502,673.26633 682.89246,668.10826 685.50521,659.19921 C689.26021,646.39534 678.07521,634.66941 669.36957,624.55746 C662.910815,617.053242 657.364263,608.809946 652.84598,600.00007 C651.0349,596.46757 649.3704,592.7748 648.89376,588.83381 C648.20736,583.15835 650.0307,577.51073 651.86767,572.09708 C657.987163,554.062627 664.529973,536.179277 671.4961,518.44703" id="Path" stroke="#3F3D56"></path>
            <path d="M628.44637,573.9512 C636.753388,576.971121 646.061777,574.414642 651.661067,567.575458 C657.260356,560.736275 657.929027,551.106396 653.328703,543.55898 C648.728378,536.011565 639.862644,532.193127 631.21797,534.03597 L631.7389,544.74817 L626.67075,535.56772 C621.696652,537.904901 617.853947,542.12129 615.98708,547.29032 C615.324091,549.100969 614.921044,550.996438 614.78996,552.92019 C614.132607,562.194162 619.707079,570.778905 628.44637,573.9512 Z" id="Path" stroke="#3F3D56"></path>
            <path d="M650.12279,514.74766 C652.538706,508.08171 658.18549,503.106777 665.10272,501.55003 L666.81634,511.73381 L669.99334,501.03814 C679.044404,501.172369 686.970534,507.142185 689.59849,515.80438 C692.226446,524.466576 688.953371,533.834031 681.502594,538.974625 C674.051817,544.115218 664.132556,543.849691 656.967468,538.317847 C649.80238,532.786004 647.035146,523.256856 650.12276,514.74766 L650.12279,514.74766 Z" id="Path" fill="#57B894" fill-rule="nonzero"></path>
            <path d="M651.26562,511.07041 C653.681527,504.404454 659.328314,499.429517 666.24555,497.87278 L667.95916,508.05656 L671.13616,497.36089 C680.187225,497.495114 688.113359,503.464928 690.741318,512.127123 C693.369277,520.789319 690.096205,530.156776 682.645428,535.297372 C675.194651,540.437968 665.275389,540.172442 658.1103,534.640599 C650.94521,529.108756 648.177975,519.579607 651.26559,511.07041 L651.26562,511.07041 Z" id="Path" stroke="#3F3D56"></path>
            <path d="M665.71618,624.76386 C675.661835,628.371549 686.731442,623.942718 691.443948,614.470455 C696.156454,604.998192 693.01179,593.497678 684.13518,587.74118 L681.69397,595.96044 L679.96291,585.65662 C679.945793,585.648554 679.928073,585.641836 679.90991,585.63653 C672.919219,583.095874 665.104042,584.479318 659.410326,589.265369 C653.71661,594.051421 651.010085,601.512362 652.310981,608.835773 C653.611878,616.159185 658.722394,622.231544 665.71611,624.76386 L665.71618,624.76386 Z" id="Path" fill="#57B894" fill-rule="nonzero"></path>
            <path d="M666.70644,621.03914 C676.652095,624.646829 687.721702,620.217998 692.434208,610.745735 C697.146714,601.273472 694.00205,589.772958 685.12544,584.01646 L682.68423,592.23572 L680.95323,581.9319 C680.936114,581.923832 680.918393,581.917115 680.90023,581.91181 C673.909275,579.370075 666.09326,580.753001 660.398874,585.539214 C654.704489,590.325428 651.997715,597.78706 653.299024,605.111025 C654.600334,612.434989 659.711829,618.507485 666.70644,621.03914 Z" id="Path" stroke="#3F3D56"></path>
            <path d="M644.04926,659.32648 C645.751692,669.013663 654.006401,676.184495 663.836467,676.515546 C673.666532,676.846596 682.38498,670.247374 684.735292,660.696677 C687.085605,651.14598 682.425341,641.254418 673.564263,636.985802 C664.703185,632.717186 654.063401,635.23831 648.05984,643.02914 L657.33251,656.98568 L644.66257,649.57799 C643.680183,652.731442 643.469843,656.07477 644.04926,659.32648 Z" id="Path" fill="#57B894" fill-rule="nonzero"></path>
            <path d="M644.90638,656.56855 C646.608823,666.255728 654.863536,673.426549 664.693599,673.757592 C674.523662,674.088634 683.242103,667.489409 685.59241,657.938714 C687.942718,648.388019 683.282453,638.496461 674.421378,634.227847 C665.560302,629.959232 654.920522,632.480354 648.91696,640.27118 L658.18962,654.22772 L645.51968,646.82003 C644.537297,649.973493 644.326961,653.316831 644.90638,656.56855 L644.90638,656.56855 Z" id="Path" stroke="#3F3D56"></path>
            <path d="M586.75808,113.83774 C588.384158,82.7670899 614.050879,58.4080353 645.16401,58.40743 C646.94155,58.40743 648.69681,58.50014 650.43396,58.65543 C664.337877,34.7353265 689.911632,20.0121927 717.579123,19.9991115 C745.246615,19.9860303 770.834281,34.6849748 784.76081,58.59192 C786.22634,58.48185 787.70174,58.40747 789.1954,58.40747 C820.308531,58.4080753 845.975252,82.7671299 847.60133,113.83774" id="Path" fill="#F2F2F2" fill-rule="nonzero"></path>
            <path d="M598.93963,109.33867 C600.565713,78.2680238 626.232432,53.908975 657.34556,53.90837 C659.1231,53.90837 660.87836,54.00107 662.61551,54.15637 C676.519427,30.2362665 702.093182,15.5131327 729.760673,15.5000515 C757.428165,15.4869703 783.015831,30.1859148 796.94236,54.09286 C798.40789,53.98279 799.88328,53.90841 801.37695,53.90841 C832.490078,53.909015 858.156797,78.2680638 859.78288,109.33867" id="Path" stroke="#3F3D56"></path>
            <path d="M161.75808,391.83774 C163.384158,360.76709 189.050879,336.408035 220.16401,336.40743 C221.94155,336.40743 223.69681,336.50014 225.43401,336.65543 C239.337927,312.735327 264.911682,298.012193 292.579173,297.999112 C320.246665,297.98603 345.834331,312.684975 359.76086,336.59192 C361.22639,336.48185 362.70179,336.40747 364.19545,336.40747 C395.308581,336.408075 420.975302,360.76713 422.60138,391.83774" id="Path" fill="#F2F2F2" fill-rule="nonzero"></path>
            <path d="M173.93963,387.33867 C175.565713,356.268024 201.232432,331.908975 232.34556,331.90837 C234.1231,331.90837 235.87836,332.00107 237.61551,332.15637 C251.519427,308.236267 277.093182,293.513133 304.760673,293.500052 C332.428165,293.48697 358.015831,308.185915 371.94236,332.09286 C373.40789,331.98279 374.88328,331.90841 376.37695,331.90841 C407.490078,331.909015 433.156797,356.268064 434.78288,387.33867" id="Path" stroke="#3F3D56"></path>
            <path d="M37.75808,98.83774 C39.3841583,67.7670899 65.0508786,43.4080353 96.16401,43.40743 C97.94155,43.40743 99.69681,43.50014 101.43401,43.65543 C115.337927,19.7353265 140.911682,5.01219275 168.579173,4.9991115 C196.246665,4.98603026 221.834331,19.6849748 235.76086,43.59192 C237.22639,43.48185 238.70179,43.40747 240.19545,43.40747 C271.308581,43.4080753 296.975302,67.7671299 298.60138,98.83774" id="Path" fill="#F2F2F2" fill-rule="nonzero"></path>
            <path d="M49.93963,94.33867 C51.5657134,63.2680238 77.2324323,38.908975 108.34556,38.90837 C110.1231,38.90837 111.87836,39.00107 113.61551,39.15637 C127.519427,15.2362665 153.093182,0.513132747 180.760673,0.500051503 C208.428165,0.486970258 234.015831,15.1859148 247.94236,39.09286 C249.40789,38.98279 250.88328,38.90841 252.37695,38.90841 C283.490078,38.909015 309.156797,63.2680638 310.78288,94.33867" id="Path" stroke="#3F3D56"></path>
            <path d="M295.05244,217.47305 C295.05244,217.47305 400.17244,269.67058 419.02157,262.42092 C437.8707,255.17126 444.39537,190.64932 444.39537,190.64932 L366.82404,176.15001 L295.05244,217.47305 Z" id="Path" fill="#4285F4" fill-rule="nonzero"></path>
            <path d="M295.05244,217.47305 C295.05244,217.47305 400.17244,269.67058 419.02157,262.42092 C437.8707,255.17126 444.39537,190.64932 444.39537,190.64932 L366.82404,176.15001 L295.05244,217.47305 Z" id="Path" fill="#000000" fill-rule="nonzero" opacity="0.1"></path>
            <rect id="Rectangle" fill="#FF6584" fill-rule="nonzero" x="444.03289" y="139.53925" width="68.87174" height="60.17215"></rect>
            <rect id="Rectangle" fill="#000000" fill-rule="nonzero" opacity="0.1" x="444.03289" y="139.53925" width="68.87174" height="60.17215"></rect>
            <path d="M381.32337,395.8146 C381.32337,395.8146 378.4235,458.8866 397.99758,457.43668 C417.57166,455.98676 397.99758,397.9895 397.99758,397.9895 L381.32337,395.8146 Z" id="Path" fill="#FBBEBE" fill-rule="nonzero"></path>
            <path d="M461.79455,148.60131 C461.79455,148.60131 466.14435,176.15001 458.16972,179.77484 C450.19509,183.39967 445.12034,186.29953 445.12034,186.29953 L463.24444,198.62394 L496.59286,200.79884 L505.29245,194.27415 L513.26707,187.02449 C513.26707,187.02449 500.21769,184.12463 500.21769,177.59994 C500.21769,171.07525 499.49269,151.50118 499.49269,151.50118 L461.79455,148.60131 Z" id="Path" fill="#FBBEBE" fill-rule="nonzero"></path>
            <path d="M461.79455,148.60131 C461.79455,148.60131 466.14435,176.15001 458.16972,179.77484 C450.19509,183.39967 445.12034,186.29953 445.12034,186.29953 L463.24444,198.62394 L496.59286,200.79884 L505.29245,194.27415 L513.26707,187.02449 C513.26707,187.02449 500.21769,184.12463 500.21769,177.59994 C500.21769,171.07525 499.49269,151.50118 499.49269,151.50118 L461.79455,148.60131 Z" id="Path" fill="#000000" fill-rule="nonzero" opacity="0.1"></path>
            <path d="M416.12172,406.68914 C416.12172,406.68914 395.09772,474.11094 395.09772,523.40861 C395.09772,523.40861 360.29937,601.7049 361.7493,640.12808 L353.04972,693.05057 L365.37413,697.40036 L374.79868,689.42574 C374.79868,689.42574 377.69855,661.15208 387.1231,647.37774 C396.54765,633.6034 418.29662,568.35649 418.29662,568.35649 C418.29662,568.35649 476.29388,446.56226 474.11898,429.16308 C471.94408,411.7639 416.12172,406.68914 416.12172,406.68914 Z" id="Path" fill="#FBBEBE" fill-rule="nonzero"></path>
            <path d="M544.44064,391.46481 C544.44064,391.46481 558.21498,397.9895 538.64091,513.984 C538.64091,513.984 549.5154,590.83036 540.09084,632.87837 L538.64091,674.92637 L523.41663,674.92637 L520.51677,670.57657 C520.51677,670.57657 519.79177,632.87836 514.71705,622.72884 C509.64233,612.57932 505.29249,553.8571 505.29249,553.8571 C505.29249,553.8571 482.09359,434.23777 487.16835,424.08825 C492.24311,413.93873 544.44064,391.46481 544.44064,391.46481 Z" id="Path" fill="#FBBEBE" fill-rule="nonzero"></path>
            <path d="M350.87481,680.72614 C350.87481,680.72614 355.94957,692.32559 365.37412,689.42573 C374.79867,686.52587 376.97357,686.52587 376.97357,686.52587 C376.97357,686.52587 370.44888,719.87429 372.62378,735.82353 C374.79868,751.77277 371.17385,761.9223 356.67453,761.9223 C342.17521,761.9223 340.00032,744.52312 340.00032,744.52312 L346.52501,703.20012 L350.87481,680.72614 Z" id="Path" fill="#2F2E41" fill-rule="nonzero"></path>
            <path d="M517.61691,662.60194 C517.61691,662.60194 522.69167,672.75148 530.66629,670.57658 C538.64091,668.40168 541.54077,664.77686 541.54077,664.77686 C541.54077,664.77686 540.81577,687.25079 543.71567,697.40031 C546.61557,707.54983 553.14023,736.54846 537.91595,737.99839 C529.330004,739.041406 521.077358,734.3256 517.61695,726.39894 L517.61691,662.60194 L517.61691,662.60194 Z" id="Path" fill="#2F2E41" fill-rule="nonzero"></path>
            <circle id="Oval" fill="#FBBEBE" fill-rule="nonzero" cx="481.36863" cy="135.55194" r="31.89849"></circle>
            <path d="M540.09084,192.82422 C540.09084,192.82422 514.8235,182.90277 505.7082,184.23867 C497.76659,190.986779 487.361811,194.100502 477.01883,192.82422 C459.61966,190.64932 452.81593,182.29944 452.81593,182.29944 C452.81593,182.29944 405.9722,192.82422 408.87206,197.17401 C411.77192,201.5238 424.8213,272.57044 424.8213,272.57044 C424.8213,272.57044 433.52089,334.19252 423.37137,355.21653 C413.22185,376.24054 408.14709,411.03888 412.49689,413.93874 C416.84669,416.8386 465.41938,429.88799 471.21911,433.51282 C477.01884,437.13765 479.19373,424.81323 482.81856,426.98813 C486.44339,429.16303 494.41801,432.78785 499.49277,429.88799 C504.56753,426.98813 553.86519,400.88936 552.41526,395.8146 C550.96533,390.73984 532.11626,329.11776 525.59153,316.79335 C519.0668,304.46894 524.1416,278.37017 527.76643,273.29541 C531.39126,268.22065 538.64091,262.42092 540.09084,247.92161 C541.54077,233.4223 540.09084,192.82422 540.09084,192.82422 Z" id="Path" fill="#772987" fill-rule="nonzero"></path>
            <path d="M410.46985,194.93347 C410.46985,194.93347 404.52227,199.34891 402.34737,208.77347 C400.17247,218.19803 397.27261,293.59447 397.27261,293.59447 C397.27261,293.59447 370.44888,397.26455 376.24861,399.43947 C382.04834,401.61439 398.72254,405.96416 400.89744,403.78926 C403.07234,401.61436 427.72117,313.89352 425.54627,304.46897 C423.37137,295.04442 428.44613,267.49572 428.44613,267.49572 L410.46985,194.93347 Z" id="Path" fill="#782888" fill-rule="nonzero"></path>
            <path d="M544.44064,329.84273 C544.44064,329.84273 505.29249,310.26866 500.9427,323.31804 C496.59291,336.36742 542.2657,350.14177 542.2657,350.14177 C542.2657,350.14177 558.21494,344.34204 558.21494,340.71721 C558.21494,337.09238 544.44064,329.84273 544.44064,329.84273 Z" id="Path" fill="#FBBEBE" fill-rule="nonzero"></path>
            <path d="M532.11622,195.72408 L540.09084,192.82422 C540.09084,192.82422 544.44064,189.92436 549.5154,200.79884 C554.59016,211.67332 609.68755,275.4703 599.53803,295.76934 C589.38851,316.06838 556.04009,357.39142 554.59016,354.49156 C553.14023,351.5917 536.46602,329.84273 539.36588,327.66783 C542.26574,325.49293 575.61416,295.76934 571.26437,291.41955 C566.91458,287.06976 548.79043,250.09655 538.64091,248.64655 C528.49139,247.19655 532.11622,195.72408 532.11622,195.72408 Z" id="Path" fill="#792F88" fill-rule="nonzero"></path>
            <path d="M446.20779,134.46448 C446.20779,134.46448 335.6591,90.01455 239.96363,47.24158 C239.96363,47.24158 189.941,34.91716 163.84224,58.11606 C163.84224,58.11606 185.59124,55.2162 185.59124,67.54062 C185.59124,67.54062 204.44034,92.18945 145.71813,96.53924 C104.8223,99.56857 88.5397,124.04656 82.42261,138.62903 C77.6469111,150.33475 69.251901,160.205825 58.4649,166.79914 C44.33026,175.24682 23.84473,181.46185 0,170.4857 C0,170.4857 1.35559,172.5697 3.92695,176.04215 C49.96525,238.21431 221.40795,292.32291 281.9493,244.16023 C319.36406,214.39553 378.67724,176.77523 421.19648,195.72404 C487.89332,225.44763 500.21773,212.39825 500.21773,212.39825 L503.1176,204.42363 C503.1176,204.42363 438.5956,187.02445 437.14572,164.55052 C435.69584,142.07659 446.20779,134.46448 446.20779,134.46448 Z" id="Path" fill="#4285F4" fill-rule="nonzero"></path>
            <path d="M510.72973,140.26421 C510.72973,140.26421 526.3165,146.42642 529.21636,166.72546 C529.21636,166.72546 545.89057,199.34891 527.04146,207.32353 C508.19235,215.29815 504.56753,213.12326 504.56753,213.12326 L504.56753,209.49843 C504.56753,209.49843 524.86653,197.17401 520.51677,187.74943 C516.16701,178.32485 510.72973,140.26421 510.72973,140.26421 Z" id="Path" fill="#4285F4" fill-rule="nonzero"></path>
            <path d="M482.81856,232.69733 C482.81856,232.69733 487.89332,219.64795 486.44339,219.64795 C484.99346,219.64795 492.34175,211.62195 495.19229,214.5475 C498.04283,217.47305 503.1176,226.17264 497.31787,228.3475 C491.51814,230.52236 482.81856,232.69733 482.81856,232.69733 Z" id="Path" fill="#4285F4" fill-rule="nonzero"></path>
            <path d="M518.54744,224.9517 C518.54744,224.9517 505.29521,220.43308 505.3565,221.8817 C505.41779,223.33032 497.08835,216.32786 499.89079,213.3562 C502.69323,210.38454 511.17053,204.94659 513.58864,210.6492 C516.00675,216.35181 518.54744,224.9517 518.54744,224.9517 Z" id="Path" fill="#4285F4" fill-rule="nonzero"></path>
            <path d="M497.31787,205.14864 C497.31787,205.14864 503.93692,201.43351 507.87705,207.27838 C511.81718,213.12325 503.1176,223.27278 497.31787,223.27278 C491.51814,223.27278 491.51814,210.94836 491.51814,210.94836 L497.31787,205.14864 Z" id="Path" fill="#4285F4" fill-rule="nonzero"></path>
            <path d="M497.31787,205.14864 C497.31787,205.14864 503.93692,201.43351 507.87705,207.27838 C511.81718,213.12325 503.1176,223.27278 497.31787,223.27278 C491.51814,223.27278 491.51814,210.94836 491.51814,210.94836 L497.31787,205.14864 Z" id="Path" fill="#000000" fill-rule="nonzero" opacity="0.1"></path>
            <path d="M453.71251,83.49791 C449.89013,86.64882 446.26528,90.17991 443.88837,94.52601 C442.64189,96.963551 441.59987,99.5003419 440.77304,102.11026 C437.84141,110.54743 430.55389,119.0926 433.63823,127.47515 C434.51834,129.86708 435.89061,132.38906 435.10164,134.81258 C434.40095,136.96489 432.23826,138.22089 430.67402,139.8569 C427.31664,143.36832 426.75225,148.63698 426.54716,153.4909 C426.17156,162.38 431.05929,172.85529 436.96516,179.50944 C438.247428,180.761215 439.435393,182.106081 440.51934,183.53304 C441.998418,185.835354 442.404662,188.66655 441.63264,191.29187 L450.23605,189.49626 C450.546459,192.672537 450.64345,195.86606 450.52637,199.05532 C454.731452,199.51744 458.68317,196.963542 459.98913,192.93977 C460.476071,195.214074 461.271261,197.411243 462.35267,199.4704 C464.876351,196.313944 466.811876,192.729403 468.06685,188.88789 C469.713256,183.967422 470.066629,178.706234 469.09302,173.60979 C468.181875,169.887554 466.942262,166.253502 465.38876,162.75038 C462.34876,155.06763 459.86627,147.17812 457.38658,139.29668 C456.0987,135.20327 454.79527,130.97677 455.18558,126.70333 L458.24258,126.37083 C458.27646,124.68285 458.602931,123.013544 459.20747,121.43717 C460.999174,121.816239 462.722978,122.465012 464.32001,123.36133 L467.84413,114.41908 C470.17003,116.83125 473.50798,117.92308 476.70413,118.92945 L488.8526,122.75461 L488.92655,120.35036 C494.054355,124.889711 499.894945,128.553303 506.21372,131.19398 C505.492184,130.322277 505.181094,129.182016 505.35997,128.06466 C508.35372,133.42779 507.15651,140.10911 505.30891,145.96676 C503.46131,151.82441 501.01008,157.78788 501.75413,163.88476 C502.31061,168.44469 504.6465,172.80563 504.21345,177.37893 C504.00019,179.63102 503.11937,181.7741 502.84545,184.01962 C502.19218,189.37514 505.008,194.47504 507.72611,199.13554 L513.01148,191.877 C514.94585,189.22049 516.9397,186.50607 519.67862,184.69028 C522.49018,182.82628 525.97512,181.98955 528.42525,179.67092 C532.79909,175.53182 532.24377,168.48026 530.8214,162.6288 C530.06528,159.51824 529.15033,156.36355 529.42831,153.1745 C529.89955,147.76833 533.65618,143.29529 535.77195,138.29806 C538.828219,130.913963 538.293831,122.530932 534.32469,115.59468 C531.69937,111.09156 527.73242,107.46489 525.2584,102.87691 C522.79561,98.30976 521.85616,92.87551 518.48164,88.93383 C516.833829,87.1401429 514.917421,85.6132771 512.80094,84.40783 C503.210133,78.6454975 492.438309,75.1312389 481.29454,74.12901 C470.72644,73.02414 461.8109,76.82214 453.71251,83.49791 Z" id="Path" fill="#784C25" fill-rule="nonzero"></path>
            <circle id="Oval" stroke="#4285F4" stroke-width="4" cx="481" cy="269" r="30"></circle>
            <text id="T" stroke="#4285F4" stroke-width="3" font-family="DFWaWaSC-W5, Wawati SC" font-size="45" font-weight="normal" letter-spacing="0.560000002" fill="#3B77DB">
                <tspan x="465" y="285">T</tspan>
            </text>
        </g>
    </g>
</svg>